<?xml version="1.0" encoding="UTF-8"?>
<svg xmlns="http://www.w3.org/2000/svg" xmlns:xlink="http://www.w3.org/1999/xlink" width="512pt" height="512pt" viewBox="0 0 512 512" version="1.1">
<g id="surface2872975">
<path style=" stroke:none;fill-rule:nonzero;fill:hsl(0, 0%, 21%);fill-opacity:1;" d="M 61.03125 0.101562 C 27.527344 0.101562 0.101562 27.527344 0.101562 61.03125 L 0.101562 450.96875 C 0.101562 484.472656 27.527344 511.898438 61.03125 511.898438 L 450.96875 511.898438 C 484.472656 511.898438 511.898438 484.472656 511.898438 450.96875 L 511.898438 61.03125 C 511.898438 27.527344 484.472656 0.101562 450.96875 0.101562 Z M 61.03125 24.472656 L 450.96875 24.472656 C 471.300781 24.472656 487.527344 40.699219 487.527344 61.03125 L 487.527344 450.96875 C 487.527344 471.300781 471.300781 487.527344 450.96875 487.527344 L 61.03125 487.527344 C 40.699219 487.527344 24.472656 471.300781 24.472656 450.96875 L 24.472656 61.03125 C 24.472656 40.699219 40.699219 24.472656 61.03125 24.472656 Z M 134.144531 48.84375 C 139.1875 61.1875 163.414062 114.417969 170.699219 134.074219 L 170.699219 182.886719 L 195.070312 182.886719 L 195.070312 134.144531 L 231.628906 48.84375 L 202.378906 48.84375 L 182.886719 97.585938 L 163.394531 48.84375 Z M 256 85.402344 C 243.742188 85.402344 234.417969 88.757812 227.582031 96.921875 C 222.304688 102.953125 219.46875 112.628906 219.46875 125.386719 L 219.441406 142.996094 C 219.441406 155.683594 221.949219 164.457031 227.226562 170.4375 C 234.074219 178.566406 245.167969 182.886719 256 182.886719 C 266.832031 182.886719 278.128906 178.566406 284.988281 170.414062 C 290.179688 164.445312 292.558594 155.683594 292.558594 142.996094 L 292.558594 125.3125 C 292.558594 112.542969 289.609375 102.953125 284.417969 96.921875 C 277.570312 88.757812 266.832031 85.402344 256 85.402344 Z M 304.742188 85.402344 L 304.742188 156.539062 C 304.742188 164.582031 305.941406 170.046875 307.644531 173.558594 C 310.449219 179.320312 316.0625 182.273438 324.117188 182.53125 C 335.214844 182.894531 343.554688 175.695312 353.484375 166.132812 L 353.484375 182.886719 L 377.855469 182.886719 L 377.855469 85.402344 L 353.484375 85.402344 L 353.484375 150.898438 C 347.941406 157.46875 341.558594 163.300781 336.539062 163.300781 C 333.210938 163.300781 329.722656 161.769531 329.113281 158.515625 L 329.113281 85.402344 Z M 256 105.132812 C 262.726562 105.132812 268.1875 110.707031 268.1875 117.578125 L 268.1875 151.78125 C 268.1875 158.640625 262.726562 164.226562 256 164.226562 C 249.273438 164.226562 243.8125 158.652344 243.8125 151.78125 L 243.8125 117.578125 C 243.8125 110.71875 249.273438 105.132812 256 105.132812 Z M 255.882812 219.441406 C 255.882812 219.441406 174.121094 219.445312 119.53125 223.347656 C 111.855469 224.199219 95.269531 224.320312 80.402344 239.554688 C 68.707031 251.007812 64.933594 277.324219 64.933594 277.324219 C 64.933594 277.324219 61.03125 295.976562 61.03125 326.804688 L 61.03125 355.675781 C 61.03125 386.503906 64.933594 405.15625 64.933594 405.15625 C 64.933594 405.15625 68.707031 431.46875 80.402344 443.042969 C 95.269531 458.15625 114.757812 457.667969 123.410156 459.253906 C 154.605469 462.175781 256 463.15625 256 463.15625 C 256 463.15625 337.878906 463.03125 392.46875 459.132812 C 400.144531 458.28125 416.730469 458.15625 431.597656 442.925781 C 443.292969 431.46875 447.066406 405.15625 447.066406 405.15625 C 447.066406 405.15625 450.96875 386.503906 450.96875 355.675781 L 450.96875 326.804688 C 450.96875 295.976562 447.066406 277.324219 447.066406 277.324219 C 447.066406 277.324219 443.292969 251.007812 431.597656 239.554688 C 416.730469 224.320312 400.144531 224.199219 392.46875 223.347656 C 337.878906 219.445312 256.117188 219.441406 256.117188 219.441406 Z M 97.585938 268.1875 L 170.699219 268.1875 L 170.699219 292.558594 L 146.328125 292.558594 L 146.328125 414.414062 L 121.957031 414.414062 L 121.957031 292.558594 L 97.585938 292.558594 Z M 256 268.1875 L 280.371094 268.1875 L 280.371094 321.570312 C 289.511719 310.84375 294.375 304.621094 306.195312 304.742188 C 315.457031 304.863281 322.902344 310.113281 325.949219 319.617188 C 327.53125 324.734375 329.113281 333.875 329.113281 345.941406 L 329.113281 379.449219 C 328.992188 390.175781 327.886719 394.917969 326.425781 400.039062 C 323.378906 409.542969 315.457031 414.414062 306.195312 414.414062 C 298.03125 414.414062 288.046875 408.6875 280.371094 399.179688 L 280.371094 414.414062 L 256 414.414062 Z M 170.699219 304.742188 L 195.070312 304.742188 L 195.070312 388.707031 C 195.679688 392.242188 198.234375 393.5625 201.402344 393.5625 C 206.277344 393.5625 214.082031 388.207031 219.441406 381.140625 L 219.441406 304.742188 L 243.8125 304.742188 L 243.8125 414.414062 L 219.441406 414.414062 L 219.441406 397.730469 C 209.816406 408.207031 198.351562 414.414062 189.457031 414.414062 C 181.65625 414.414062 176.191406 411.011719 173.507812 404.796875 C 171.925781 400.898438 170.699219 395.03125 170.699219 386.257812 Z M 378.214844 304.742188 C 390.277344 304.742188 399.90625 308.640625 406.605469 315.953125 C 411.601562 321.3125 414.414062 329.605469 414.414062 341.0625 L 414.414062 365.671875 L 365.671875 365.671875 L 365.671875 387.613281 C 365.671875 393.21875 371.152344 397.847656 377.855469 397.847656 C 384.558594 397.847656 390.042969 393.21875 390.042969 387.613281 L 390.042969 377.855469 L 414.414062 377.855469 C 414.414062 384.070312 413.679688 389.304688 413.554688 391.253906 C 412.703125 395.519531 410.769531 399.433594 407.84375 402.847656 C 401.265625 410.644531 391.382812 414.414062 378.832031 414.414062 C 366.160156 414.414062 356.644531 410.753906 349.699219 403.441406 C 344.582031 398.199219 341.300781 390.164062 341.300781 378.832031 L 341.300781 341.539062 C 341.300781 330.082031 344.222656 321.3125 349.460938 315.953125 C 356.410156 308.640625 365.90625 304.742188 378.214844 304.742188 Z M 377.855469 322.402344 C 371.152344 322.402344 365.671875 326.910156 365.671875 332.636719 L 365.671875 348.726562 L 390.042969 348.726562 L 390.042969 332.636719 C 390.042969 326.910156 384.558594 322.402344 377.855469 322.402344 Z M 295.246094 326.066406 C 293.359375 326.066406 290.601562 327.015625 287.84375 328.445312 C 286.464844 329.164062 285.078125 329.996094 283.796875 330.898438 C 282.515625 331.800781 281.347656 332.78125 280.371094 333.753906 L 280.371094 386.996094 C 281.347656 387.96875 282.515625 388.871094 283.796875 389.660156 C 287.640625 392.027344 292.414062 393.445312 295.246094 393.445312 C 297.714844 393.445312 299.648438 392.84375 301.125 391.398438 C 301.617188 390.917969 302.070312 390.335938 302.457031 389.660156 C 303.234375 388.3125 303.792969 386.5625 304.171875 384.351562 C 304.546875 382.144531 304.742188 379.460938 304.742188 376.261719 L 304.742188 342.894531 C 304.742188 339.695312 304.546875 337.027344 304.171875 334.847656 C 303.417969 330.496094 301.90625 328.054688 299.507812 326.898438 C 298.308594 326.324219 296.890625 326.066406 295.246094 326.066406 Z M 295.246094 326.066406 "/>
</g>
</svg>
